<svg width="16" height="12" viewBox="0 0 16 12" fill="none" xmlns="http://www.w3.org/2000/svg">
<path d="M6.5498 0.312467C6.65114 0.268174 6.76901 0.279729 6.85598 0.340711L14.6005 5.79833C14.6673 5.84583 14.7097 5.92094 14.7097 5.99861C14.7097 6.075 14.6666 6.15267 14.6005 6.20017L6.85598 11.6578C6.80279 11.6937 6.74026 11.7143 6.67701 11.7143L6.5498 11.688C6.45061 11.6469 6.38808 11.5551 6.38808 11.4562V0.543559C6.38808 0.444703 6.45061 0.352908 6.5498 0.312467Z" fill="white"/>
<path d="M0.162358 0.312467C0.262983 0.268174 0.380138 0.279729 0.467825 0.340711L8.21303 5.79833C8.28059 5.84583 8.323 5.92094 8.323 5.99861C8.323 6.075 8.27987 6.15267 8.21303 6.20017L0.467825 11.6578C0.415357 11.6937 0.351389 11.7143 0.288858 11.7143L0.162358 11.688C0.0624533 11.6469 -7.82013e-05 11.5551 -7.82013e-05 11.4562V0.543559C-7.82013e-05 0.444703 0.0624533 0.352908 0.162358 0.312467Z" fill="white"/>
<path d="M13.8639 0.306641H15.7743C15.8972 0.306641 16 0.42347 16 0.563409V11.435C16 11.5769 15.8972 11.6937 15.7743 11.6937H13.8646C13.7395 11.6937 13.6382 11.5762 13.6382 11.435V0.563409C13.6375 0.42347 13.7388 0.306641 13.8639 0.306641Z" fill="white"/>
</svg>
