<svg width="16" height="12" viewBox="0 0 16 12" fill="none" xmlns="http://www.w3.org/2000/svg">
<path fill-rule="evenodd" clip-rule="evenodd" d="M0 1.49613C0 0.769212 0.589281 0.179932 1.3162 0.179932H14.6838C15.4107 0.179932 16 0.769212 16 1.49613V10.5038C16 11.2308 15.4107 11.82 14.6838 11.82H1.3162C0.589282 11.82 0 11.2308 0 10.5038V1.49613ZM1.3162 1.16708C1.13447 1.16708 0.987146 1.3144 0.987146 1.49613V10.5038C0.987146 10.6856 1.13447 10.8329 1.3162 10.8329H14.6838C14.8655 10.8329 15.0129 10.6856 15.0129 10.5038V1.49613C15.0129 1.3144 14.8655 1.16708 14.6838 1.16708H1.3162Z" fill="#4A4A4A"/>
<path d="M6.33411 4.37528C6.69606 4.37528 6.99221 4.07913 6.99221 3.71718C6.99221 3.35523 6.69606 3.05908 6.33411 3.05908H4.35981C3.99786 3.05908 3.70172 3.35523 3.70172 3.71718C3.70172 4.07913 3.99786 4.37528 4.35981 4.37528H4.68886V7.66577H4.35981C3.99786 7.66577 3.70172 7.96191 3.70172 8.32386C3.70172 8.68582 3.99786 8.98196 4.35981 8.98196H6.33411C6.69606 8.98196 6.99221 8.68582 6.99221 8.32386C6.99221 7.96191 6.69606 7.66577 6.33411 7.66577H6.00506V4.37528H6.33411Z" fill="#4A4A4A"/>
<path d="M6.21071 4.37528C6.57267 4.37528 6.86881 4.07913 6.86881 3.71718C6.86881 3.35523 6.57267 3.05908 6.21071 3.05908H4.23642C3.87447 3.05908 3.57832 3.35523 3.57832 3.71718C3.57832 4.07913 3.87447 4.37528 4.23642 4.37528H4.56547V7.66577H4.23642C3.87447 7.66577 3.57832 7.96191 3.57832 8.32386C3.57832 8.68582 3.87447 8.98196 4.23642 8.98196H6.21071C6.57267 8.98196 6.86881 8.68582 6.86881 8.32386C6.86881 7.96191 6.57267 7.66577 6.21071 7.66577H5.88167V4.37528H6.21071Z" fill="#4A4A4A"/>
<path d="M10.6118 3.05908H9.29556C8.93361 3.05908 8.63746 3.35523 8.63746 3.71718V8.32386C8.63746 8.68582 8.93361 8.98196 9.29556 8.98196C9.65751 8.98196 9.95366 8.68582 9.95366 8.32386V7.00767H10.6118C11.6976 7.00767 12.586 6.11924 12.586 5.03338C12.586 3.94751 11.6976 3.05908 10.6118 3.05908ZM10.6118 5.69147H9.95366V4.37528H10.6118C10.9737 4.37528 11.2699 4.67142 11.2699 5.03338C11.2699 5.39533 10.9737 5.69147 10.6118 5.69147Z" fill="#4A4A4A"/>
<path d="M10.4884 3.05908H9.17217C8.81021 3.05908 8.51407 3.35523 8.51407 3.71718V8.32386C8.51407 8.68582 8.81021 8.98196 9.17217 8.98196C9.53412 8.98196 9.83026 8.68582 9.83026 8.32386V7.00767H10.4884C11.5742 7.00767 12.4627 6.11924 12.4627 5.03338C12.4627 3.94751 11.5742 3.05908 10.4884 3.05908ZM10.4884 5.69147H9.83026V4.37528H10.4884C10.8503 4.37528 11.1465 4.67142 11.1465 5.03338C11.1465 5.39533 10.8503 5.69147 10.4884 5.69147Z" fill="#4A4A4A"/>
</svg>
