<?xml version="1.0" encoding="UTF-8"?>
<!-- Generator: Adobe Illustrator 25.4.1, SVG Export Plug-In . SVG Version: 6.00 Build 0)  -->
<svg xmlns="http://www.w3.org/2000/svg" xmlns:xlink="http://www.w3.org/1999/xlink" version="1.1" id="Capa_1" x="0px" y="0px" viewBox="0 0 512 512" style="enable-background:new 0 0 512 512;" xml:space="preserve" width="512" height="512">
<g>
	<linearGradient id="SVGID_1_" gradientUnits="userSpaceOnUse" x1="120.5722" y1="351.9393" x2="474.9165" y2="351.9393">
		<stop offset="0" style="stop-color:#00376F"/>
		<stop offset="1" style="stop-color:#004E99"/>
	</linearGradient>
	<path style="fill:url(#SVGID_1_);" d="M314.933,505.421c66.624-15.41,123.285-56.83,158.723-112.986   c4.324-6.852-3.301-15.047-10.441-11.216c-27.244,14.615-59.578,23.083-94.262,23.083c-96.132,0-174.251-65.027-175.862-145.758   c-0.544-27.28,15.737-51.398,39.363-61.48l-0.016-0.011c-13.967,4.889-29.673,6.91-41.82,15.331   c-46.071,31.936-74.038,91.028-69.583,144.152c4.324,51.55,35.847,111.958,90.373,138.946   C239.923,509.595,276.707,507.298,314.933,505.421z"/>
	
		<linearGradient id="SVGID_00000098899288085079919350000015753426398903417775_" gradientUnits="userSpaceOnUse" x1="105.7237" y1="90.2822" x2="402.1748" y2="265.6476">
		<stop offset="0" style="stop-color:#00C2DD"/>
		<stop offset="1" style="stop-color:#00D34F"/>
	</linearGradient>
	<path style="fill:url(#SVGID_00000098899288085079919350000015753426398903417775_);" d="M312.618,333.416   c17.271,6.302,36.319,9.795,56.335,9.795c78.436,0,142.02-53.612,142.022-119.745c0-131.109-122.285-222.281-251.579-223.454   C118.43-1.269,2.319,112.649,1.035,253.615c0,0,35.268-108.92,161.25-108.92c85.246,0,144.847,50.601,154.637,88.852   c2.62,6.987,4.06,14.551,4.06,22.453c0,16.57-6.302,31.668-16.639,43.029C294.101,310.285,298.321,328.199,312.618,333.416z"/>
	
		<linearGradient id="SVGID_00000059299066691877713180000000433082510391625388_" gradientUnits="userSpaceOnUse" x1="133.4881" y1="141.756" x2="213.3422" y2="508.1444">
		<stop offset="0.0016" style="stop-color:#006393"/>
		<stop offset="0.4" style="stop-color:#0086DE"/>
		<stop offset="1" style="stop-color:#006393"/>
	</linearGradient>
	<path style="fill:url(#SVGID_00000059299066691877713180000000433082510391625388_);" d="M316.922,233.547   c-9.789-38.251-42.391-111.963-148.293-111.963C5.789,121.584,1.035,253.615,1.035,253.615C-0.262,396.094,114.845,512,257.024,512   c19.917,0,39.301-2.276,57.909-6.579c-206.514,10.141-227.724-257.532-82.494-308.368l0.016,0.011   c7.345-3.134,15.391-4.927,23.873-5.018C284.049,191.751,307.752,209.097,316.922,233.547z"/>
</g>















</svg>
