<svg width="12" height="12" viewBox="0 0 12 12" fill="none" xmlns="http://www.w3.org/2000/svg">
<path d="M10.8934 0.285067C11.4307 0.278156 11.868 0.653292 11.8599 1.11372V10.8962C11.8599 11.9849 9.95435 11.9849 9.95435 10.8962V6.01393C9.94961 6.25412 9.82351 6.49268 9.57436 6.65286L1.95413 11.5503C1.32583 11.954 0.429391 11.5695 0.429985 10.8966V1.10137C0.430021 0.668611 0.823941 0.311343 1.3281 0.286661C1.55235 0.275485 1.77423 0.33241 1.95413 0.44769L9.57436 5.34669C9.82351 5.50687 9.94961 5.74582 9.95435 5.98602V1.11372C9.94645 0.662741 10.3671 0.291238 10.8934 0.285067Z" fill="white"/>
</svg>
