<svg width="12" height="12" viewBox="0 0 12 12" fill="none" xmlns="http://www.w3.org/2000/svg">
<path d="M0.966593 0.285067C0.429322 0.278156 -0.0079895 0.653292 0.000110744 1.11372V10.8962C0.000110744 11.9849 1.90563 11.9849 1.90563 10.8962V6.01393C1.91037 6.25412 2.03648 6.49268 2.28562 6.65286L9.90586 11.5503C10.5342 11.954 11.4306 11.5695 11.43 10.8966V1.10137C11.43 0.668611 11.036 0.311343 10.5319 0.286661C10.3076 0.275485 10.0858 0.33241 9.90586 0.44769L2.28562 5.34669C2.03648 5.50687 1.91037 5.74582 1.90563 5.98602V1.11372C1.91354 0.662741 1.49285 0.291238 0.966593 0.285067Z" fill="white"/>
</svg>
