<svg width="16" height="12" viewBox="0 0 16 12" fill="none" xmlns="http://www.w3.org/2000/svg">
<path d="M9.4502 0.312467C9.34886 0.268174 9.23099 0.279729 9.14402 0.340711L1.39953 5.79833C1.33269 5.84583 1.29028 5.92094 1.29028 5.99861C1.29028 6.075 1.33341 6.15267 1.39953 6.20017L9.14402 11.6578C9.19721 11.6937 9.25974 11.7143 9.32299 11.7143L9.4502 11.688C9.54939 11.6469 9.61192 11.5551 9.61192 11.4562V0.543559C9.61192 0.444703 9.54939 0.352908 9.4502 0.312467Z" fill="white"/>
<path d="M15.8376 0.312467C15.737 0.268174 15.6199 0.279729 15.5322 0.340711L7.78697 5.79833C7.71941 5.84583 7.677 5.92094 7.677 5.99861C7.677 6.075 7.72013 6.15267 7.78697 6.20017L15.5322 11.6578C15.5846 11.6937 15.6486 11.7143 15.7111 11.7143L15.8376 11.688C15.9375 11.6469 16.0001 11.5551 16.0001 11.4562V0.543559C16.0001 0.444703 15.9375 0.352908 15.8376 0.312467Z" fill="white"/>
<path d="M2.13611 0.306641H0.225686C0.102781 0.306641 0 0.42347 0 0.563409V11.435C0 11.5769 0.102781 11.6937 0.225686 11.6937H2.13539C2.26046 11.6937 2.3618 11.5762 2.3618 11.435V0.563409C2.36252 0.42347 2.26117 0.306641 2.13611 0.306641Z" fill="white"/>
</svg>
