<svg width="8" height="8" viewBox="0 0 8 8" fill="none" xmlns="http://www.w3.org/2000/svg">
<path d="M4 0C1.79089 0 0 1.79086 0 4C0 6.20914 1.79089 8 4 8C6.20911 8 8 6.20914 8 4C8 1.79086 6.20911 0 4 0ZM5.3825 4.21203L3.3825 5.46203C3.34203 5.4873 3.29602 5.5 3.25 5.5C3.20831 5.5 3.16656 5.48963 3.12878 5.46863C3.04931 5.42456 3 5.34094 3 5.25V2.75C3 2.65906 3.04931 2.57544 3.12878 2.53137C3.20825 2.48706 3.30542 2.48975 3.3825 2.53797L5.3825 3.78797C5.45556 3.83375 5.5 3.91383 5.5 4C5.5 4.08617 5.45556 4.16627 5.3825 4.21203Z" fill="white"/>
</svg>
